<?xml version="1.0" standalone="no"?>
<!DOCTYPE svg PUBLIC "-//W3C//DTD SVG 20010904//EN"
 "http://www.w3.org/TR/2001/REC-SVG-20010904/DTD/svg10.dtd">
<svg version="1.0" xmlns="http://www.w3.org/2000/svg"
 width="144.000000pt" height="144.000000pt" viewBox="0 0 144.000000 144.000000"
 preserveAspectRatio="xMidYMid meet">
<metadata>
Created by potrace 1.11, written by Peter Selinger 2001-2013
</metadata>
<g transform="translate(0.000000,144.000000) scale(0.100000,-0.100000)"
fill="#000000" stroke="none">
<path d="M1015 1409 c-11 -6 -82 -72 -157 -147 l-137 -135 -60 55 c-33 31 -74
59 -91 63 -88 19 -174 -70 -150 -156 10 -35 195 -233 244 -261 17 -10 42 -18
56 -18 44 0 80 30 283 236 193 197 197 202 197 243 0 53 -22 96 -60 116 -34
17 -96 19 -125 4z"/>
<path d="M112 1199 c-42 -9 -78 -42 -92 -86 -22 -64 -8 -88 148 -246 l146
-147 -51 -53 c-28 -28 -56 -62 -62 -74 -44 -86 46 -197 144 -179 31 6 60 29
151 118 189 184 189 186 -69 446 -106 107 -201 198 -211 204 -34 18 -70 25
-104 17z"/>
<path d="M1063 1014 c-17 -9 -79 -64 -136 -123 -168 -172 -168 -172 87 -429
105 -107 204 -201 220 -209 98 -51 215 38 190 144 -4 18 -61 83 -152 175
l-146 147 56 59 c58 60 74 100 63 151 -10 48 -81 101 -133 101 -9 0 -31 -8
-49 -16z"/>
<path d="M665 614 c-38 -19 -391 -369 -412 -408 -51 -97 38 -215 144 -190 18
4 83 61 175 152 l147 146 59 -56 c60 -58 100 -74 151 -63 33 7 75 48 91 89 22
59 4 93 -107 208 -134 137 -178 158 -248 122z"/>
</g>
</svg>
